<svg height="512" viewBox="0 0 49 60" width="512" xmlns="http://www.w3.org/2000/svg"><g id="Page-1" fill="none" fill-rule="evenodd"><g id="035---Elf-Ears" fill="rgb(0,0,0)" fill-rule="nonzero" transform="translate(-1 -1)"><path id="Shape" d="m6 53c-.55228475 0-1 .4477153-1 1 0 .07.091 7 8 7 5.284 0 8-3.163 10.4-5.953.9479246-1.1932619 2.0206853-2.2817788 3.2-3.247 5.3161722-4.0083482 8.7200023-10.0520313 9.392-16.676.384-3.068 2.216-6.029 4.535-9.778 3.412-5.515 7.659-12.379 9.459-23.181.0505163-.29934652-.0376844-.6054331-.2397453-.83199798-.2020609-.22656487-.4961014-.34907412-.7992547-.33300202-.762.041-18.329 1.036-30.4 7.547-.019.009-.036.02-.054.03-.337.182-.671.367-1 .558-6.5 3.8-8.472 6.763-10.054 9.149-1.2397956 2.2824268-3.31636474 3.9951572-5.793 4.778-.5174908.1932997-.78029965.7695092-.58699999 1.287s.76950918.7802997 1.28699999.587c2.87407345-.9260398 5.28944774-2.908591 6.758-5.547 1.467-2.213 3.292-4.967 9.4-8.526.25-.146.5-.287.761-.428 4.652-.259 12.524-.039 14.867 4.06 2.1290824 3.7722784 1.7737716 8.4560649-.9 11.864-.2390052.2731981-.3111994.6544583-.1886229.9961244.1225766.341666.4206735.5900801.7788424.6490353.3581689.0589551.7201604-.0808074.9457805-.3651597.055-.065 5.395-6.62 1.1-14.136-.9977105-1.6199509-2.5006276-2.866701-4.277-3.548 3.778211-.94234703 7.6226371-1.59589946 11.5-1.955.3572656-.03251116.6700481-.25315164.8205254-.57880831.1504773-.32565666.1157883-.70685451-.091-1.00000001-.2067883-.29314549-.5542598-.45370285-.9115254-.42119168-5.0838039.49854553-10.1130428 1.44930862-15.028 2.841l-.048.012c-1.4012708-.25043218-2.8184475-.4018071-4.241-.453 9.337-3.792 20.493-5 24.2-5.3-1.848 9.7-5.779 16.056-8.964 21.2-2.35 3.8-4.381 7.081-4.818 10.582-.6118445 6.0821454-3.7322546 11.6336485-8.61 15.318-1.2967214 1.0513619-2.4762147 2.2395723-3.518 3.544-2.322 2.703-4.516 5.256-8.882 5.256-5.778 0-5.995-4.485-6-5 0-.5522847-.44771525-1-1-1z"/><path id="Shape" d="m10.8 38.4c-.3313708-.4418278-.9581722-.5313708-1.4-.2s-.53137085.9581722-.2 1.4c.027.035 2.6 3.571.907 6.955-.89234595 1.6563083-.74171671 3.6800473.386 5.186.5036098.6597696 1.2774003 1.0578658 2.107 1.084.2174017-.0000223.4337657-.02997.643-.089.992-.28 2.275-1.3 2.745-4.594.659-4.616 2.521-5.195 5.339-6.073 1.0707037-.3022106 2.1143241-.6932337 3.12-1.169 2.105-1.053 3.059-3.711 2.373-6.615-.7953429-3.6788522-4.0561841-6.2996178-7.82-6.285-2.1016899-.0023875-4.1942524.276419-6.222.829-.4096431-2.1770561-.3458653-4.4167825.187-6.567.0937822-.3447613-.0034874-.7133661-.2551683-.9669645-.251681-.2535984-.6195369-.3536629-.965-.2625-.3454632.0911628-.6160495.3597032-.7098317.7044645-.7431938 2.8099875-.7086283 5.7691391.1 8.561.006.024 0 .048.008.072s.027.041.037.065c.9506801 3.1187345 3.3901429 5.5604464 6.508 6.514.3394023.1128959.7132522.0361471.9807241-.201336.2674719-.237483.3879305-.599621.3160001-.95-.0719305-.350379-.3253219-.6357681-.6647242-.748664-2.1911124-.6530533-3.9873288-2.2311813-4.917-4.32 1.8256605-.4872153 3.7074487-.7323151 5.597-.729 2.8394619-.0286441 5.3015352 1.9576967 5.874 4.739.389 1.65.132 3.64-1.321 4.366-.9092291.4281787-1.8520591.7810292-2.819 1.055-2.894.9-5.886 1.833-6.724 7.7-.3 2.126-.965 2.856-1.307 2.953-.289.081-.587-.244-.671-.346-.6273497-.8942131-.6807522-2.0706256-.137-3.018 2.25-4.503-.957-8.866-1.095-9.049z"/><path id="Shape" d="m18 16c.193855.0000639.3835495-.0562191.546-.162.11-.072 2.766-1.753 7.254-.855.3556996.0839647.7288731-.0328053.9732685-.3045463s.32108-.6551639.2-1-.4206363-.5961521-.7812685-.6554537c-5.345-1.069-8.614 1.057-8.751 1.148-.3644359.2458507-.5255738.7008731-.3970827 1.121285s.5164737.7076057.9560827.707715z"/></g></g></svg>