<?xml version="1.0" encoding="UTF-8" standalone="no"?>
<svg
   xmlns:dc="http://purl.org/dc/elements/1.1/"
   xmlns:cc="http://creativecommons.org/ns#"
   xmlns:rdf="http://www.w3.org/1999/02/22-rdf-syntax-ns#"
   xmlns:svg="http://www.w3.org/2000/svg"
   xmlns="http://www.w3.org/2000/svg"
   xmlns:sodipodi="http://sodipodi.sourceforge.net/DTD/sodipodi-0.dtd"
   xmlns:inkscape="http://www.inkscape.org/namespaces/inkscape"
   height="512"
   viewBox="0 0 49 60"
   width="512"
   version="1.1"
   id="svg9"
   sodipodi:docname="elf.svg"
   inkscape:version="0.92.4 (5da689c313, 2019-01-14)">
  <metadata
     id="metadata15">
    <rdf:RDF>
      <cc:Work
         rdf:about="">
        <dc:format>image/svg+xml</dc:format>
        <dc:type
           rdf:resource="http://purl.org/dc/dcmitype/StillImage" />
      </cc:Work>
    </rdf:RDF>
  </metadata>
  <defs
     id="defs13" />
  <sodipodi:namedview
     pagecolor="#ffffff"
     bordercolor="#666666"
     borderopacity="1"
     objecttolerance="10"
     gridtolerance="10"
     guidetolerance="10"
     inkscape:pageopacity="0"
     inkscape:pageshadow="2"
     inkscape:window-width="1600"
     inkscape:window-height="850"
     id="namedview11"
     showgrid="false"
     inkscape:zoom="0.921875"
     inkscape:cx="543.91484"
     inkscape:cy="154.67388"
     inkscape:window-x="0"
     inkscape:window-y="0"
     inkscape:window-maximized="1"
     inkscape:current-layer="svg9" />
  <path
     style="fill:#c9d7c9;fill-opacity:1;fill-rule:nonzero;stroke:none;stroke-opacity:1"
     d="m 4,53 c 0,0.07 0.091,7 8,7 5.284,0 8,-3.163 10.4,-5.953 0.947925,-1.193262 2.020685,-2.281779 3.2,-3.247 5.316172,-4.008348 8.720002,-10.052031 9.392,-16.676 0.384,-3.068 2.216,-6.029 4.535,-9.778 C 42.939,18.831 47.186,11.967 48.986,1.165 49.036516,0.8656535 48.948316,0.5595669 48.746255,0.333002 48.544194,0.1064371 48.250153,-0.0160721 47.947,0 c -0.762,0.041 -18.329,1.036 -30.4,7.547 -0.019,0.009 -0.036,0.02 -0.054,0.03 -0.337,0.182 -0.671,0.367 -1,0.558 -6.5,3.8 -8.472,6.763 -10.054,9.149 -1.2397956,2.282427 -3.3163647,3.995157 -5.793,4.778 -0.5174908,0.1933 -0.78029965,0.769509 -0.587,1.287 C 4.974753,36.26546 4.0611115,50.989384 4,53 Z"
     id="path4548"
     inkscape:connector-curvature="0"
     sodipodi:nodetypes="cscccccscccccccc" />
  <path
     style="fill:#000000;fill-rule:nonzero"
     id="Shape"
     d="m 5,52 c -0.5522848,0 -1,0.447715 -1,1 0,0.07 0.091,7 8,7 5.284,0 8,-3.163 10.4,-5.953 0.947925,-1.193262 2.020685,-2.281779 3.2,-3.247 5.316172,-4.008348 8.720002,-10.052031 9.392,-16.676 0.384,-3.068 2.216,-6.029 4.535,-9.778 C 42.939,18.831 47.186,11.967 48.986,1.165 49.036516,0.8656535 48.948316,0.5595669 48.746255,0.333002 48.544194,0.1064371 48.250153,-0.0160721 47.947,0 c -0.762,0.041 -18.329,1.036 -30.4,7.547 -0.019,0.009 -0.036,0.02 -0.054,0.03 -0.337,0.182 -0.671,0.367 -1,0.558 -6.5,3.8 -8.472,6.763 -10.054,9.149 -1.2397956,2.282427 -3.3163647,3.995157 -5.793,4.778 -0.5174908,0.1933 -0.78029965,0.769509 -0.587,1.287 0.1932997,0.517491 0.7695092,0.7803 1.287,0.587 2.8740735,-0.92604 5.2894477,-2.908591 6.758,-5.547 1.467,-2.213 3.292,-4.967 9.4,-8.526 0.25,-0.146 0.5,-0.287 0.761,-0.428 4.652,-0.259 12.524,-0.039 14.867,4.06 2.129082,3.772278 1.773772,8.456065 -0.9,11.864 -0.239005,0.273198 -0.311199,0.654458 -0.188623,0.996124 0.122577,0.341666 0.420674,0.59008 0.778843,0.649036 0.358168,0.05896 0.72016,-0.08081 0.94578,-0.36516 0.055,-0.065 5.395,-6.62 1.1,-14.136 C 33.87029,10.883049 32.367372,9.636299 30.591,8.955 34.369211,8.012653 38.213637,7.3591005 42.091,7 c 0.357266,-0.032511 0.670048,-0.2531516 0.820525,-0.5788083 0.150478,-0.3256567 0.115789,-0.7068545 -0.091,-1 C 42.613737,5.1280462 42.266266,4.9674888 41.909,5 36.825196,5.4985455 31.795957,6.4493086 26.881,7.841 L 26.833,7.853 C 25.431729,7.6025678 24.014553,7.4511929 22.592,7.4 c 9.337,-3.792 20.493,-5 24.2,-5.3 -1.848,9.7 -5.779,16.056 -8.964,21.2 -2.35,3.8 -4.381,7.081 -4.818,10.582 -0.611844,6.082145 -3.732255,11.633648 -8.61,15.318 -1.296721,1.051362 -2.476215,2.239572 -3.518,3.544 C 18.56,55.447 16.366,58 12,58 6.222,58 6.005,53.515 6,53 6,52.447715 5.5522848,52 5,52 Z"
     inkscape:connector-curvature="0" />
  <path
     style="fill:#000000;fill-rule:nonzero"
     id="path3"
     d="M 9.8,37.4 C 9.468629,36.958172 8.8418278,36.868629 8.4,37.2 c -0.4418278,0.331371 -0.5313708,0.958172 -0.2,1.4 0.027,0.035 2.6,3.571 0.907,6.955 -0.8923459,1.656308 -0.7417167,3.680047 0.386,5.186 0.50361,0.65977 1.2774,1.057866 2.107,1.084 0.217402,-2.2e-5 0.433766,-0.02997 0.643,-0.089 0.992,-0.28 2.275,-1.3 2.745,-4.594 0.659,-4.616 2.521,-5.195 5.339,-6.073 1.070704,-0.302211 2.114324,-0.693234 3.12,-1.169 2.105,-1.053 3.059,-3.711 2.373,-6.615 C 25.024657,29.606148 21.763816,26.985382 18,27 c -2.10169,-0.0024 -4.194252,0.276419 -6.222,0.829 -0.409643,-2.177056 -0.345865,-4.416783 0.187,-6.567 0.09378,-0.344761 -0.0035,-0.713366 -0.255168,-0.966965 -0.251681,-0.253598 -0.619537,-0.353662 -0.965,-0.2625 -0.345463,0.09116 -0.61605,0.359704 -0.709832,0.704465 -0.743194,2.809987 -0.708628,5.769139 0.1,8.561 0.006,0.024 0,0.048 0.008,0.072 0.008,0.024 0.027,0.041 0.037,0.065 0.95068,3.118734 3.390143,5.560446 6.508,6.514 0.339402,0.112896 0.713252,0.03615 0.980724,-0.201336 0.267472,-0.237483 0.387931,-0.599621 0.316,-0.95 C 17.912794,34.447285 17.659402,34.161896 17.32,34.049 15.128888,33.395947 13.332671,31.817819 12.403,29.729 14.228661,29.241785 16.110449,28.996685 18,29 c 2.839462,-0.02864 5.301535,1.957697 5.874,4.739 0.389,1.65 0.132,3.64 -1.321,4.366 -0.909229,0.428179 -1.852059,0.781029 -2.819,1.055 -2.894,0.9 -5.886,1.833 -6.724,7.7 -0.3,2.126 -0.965,2.856 -1.307,2.953 -0.289,0.081 -0.587,-0.244 -0.671,-0.346 C 10.40465,48.572787 10.351248,47.396374 10.895,46.449 13.145,41.946 9.938,37.583 9.8,37.4 Z"
     inkscape:connector-curvature="0" />
  <path
     style="fill:#000000;fill-rule:nonzero"
     id="path5"
     d="m 17,15 c 0.193855,6.4e-5 0.383549,-0.05622 0.546,-0.162 0.11,-0.072 2.766,-1.753 7.254,-0.855 0.3557,0.08396 0.728873,-0.0328 0.973268,-0.304546 0.244396,-0.271741 0.32108,-0.655164 0.2,-1 C 25.852188,12.333618 25.552632,12.082302 25.192,12.023 19.847,10.954 16.578,13.08 16.441,13.171 16.076564,13.416851 15.915426,13.871873 16.043917,14.292285 16.172408,14.712697 16.560391,14.999891 17,15 Z"
     inkscape:connector-curvature="0" />
</svg>
